<?xml version="1.0" encoding="utf-8"?><svg version="1.1" id="Layer_1" xmlns="http://www.w3.org/2000/svg" xmlns:xlink="http://www.w3.org/1999/xlink" x="0px" y="0px" viewBox="0 0 122.88 114.25" style="enable-background:new 0 0 122.88 114.25" xml:space="preserve"><g><path d="M65.02,16.22c1.86-1.79,4.31-3.15,7-3.92c2.85-0.81,6.01-0.96,9.03-0.24c3.07,0.74,5.98,2.39,8.26,5.16 c2.24,2.72,3.83,6.5,4.3,11.54c8.97,3.44,14.38,9.24,17,15.57c1.21,2.92,1.82,5.96,1.9,8.92c0.08,2.97-0.36,5.87-1.25,8.53 c-1.58,4.72-4.57,8.7-8.56,10.99c0.18,2.09,0.1,4.17-0.2,6.2c-0.83,5.61-3.39,10.87-7.3,14.98c-3.91,4.11-9.18,7.07-15.4,8.04 c-2.25,0.35-4.61,0.45-7.06,0.25c-1.75,3.24-5.31,5.59-9.34,6.69c-2.24,0.61-4.66,0.84-7.01,0.61c-2.42-0.24-4.76-0.96-6.75-2.25 c-2.32-1.5-4.14-3.72-5.04-6.74c-3.1,1.93-6.05,2.72-8.69,2.66c-2.64-0.06-4.96-0.97-6.84-2.47c-1.83-1.46-3.24-3.47-4.13-5.82 c-1.28-3.36-1.49-7.46-0.32-11.54c-5.42-2.36-9.07-6.19-11.25-10.64c-1.98-4.05-2.7-8.61-2.38-13.04c0.32-4.4,1.67-8.7,3.84-12.27 c2.39-3.93,5.78-6.99,9.91-8.4c-0.05-7.35,2.31-13.32,6.06-17.78c2.33-2.76,5.18-4.93,8.31-6.46c3.13-1.53,6.52-2.43,9.94-2.68 C54.61,11.73,60.28,13.05,65.02,16.22L65.02,16.22z M117.42,72.28c1.86-0.93,4.13-0.18,5.07,1.69c0.93,1.87,0.18,4.13-1.69,5.07 c-1.87,0.93-4.13,0.18-5.07-1.69C114.79,75.48,115.55,73.21,117.42,72.28L117.42,72.28z M38.55,0c2.63,0,4.77,2.13,4.77,4.77 c0,2.63-2.13,4.77-4.77,4.77c-2.63,0-4.77-2.13-4.77-4.77C33.79,2.13,35.92,0,38.55,0L38.55,0z M84.62,107.1 c1.87-0.93,4.13-0.18,5.07,1.69c0.93,1.87,0.18,4.13-1.69,5.07c-1.87,0.93-4.13,0.18-5.07-1.69C82,110.3,82.76,108.03,84.62,107.1 L84.62,107.1z M0.61,75.38c0.67-0.49,1.61-0.36,2.1,0.31c0.49,0.67,0.36,1.61-0.31,2.1c-0.67,0.5-1.61,0.36-2.1-0.31 C-0.2,76.82-0.06,75.88,0.61,75.38L0.61,75.38z M9.55,84.71c1.26-0.93,3.03-0.67,3.96,0.58c0.93,1.26,0.67,3.03-0.58,3.96 c-1.26,0.93-3.03,0.67-3.96-0.58C8.03,87.42,8.29,85.64,9.55,84.71L9.55,84.71z M97.2,2.16c1.35-0.67,2.98-0.13,3.65,1.22 c0.67,1.34,0.13,2.98-1.22,3.65c-1.35,0.67-2.98,0.13-3.65-1.22C95.31,4.47,95.85,2.83,97.2,2.16L97.2,2.16z M109.81,19.77 c2.63,0,4.77,2.13,4.77,4.77c0,2.63-2.13,4.77-4.77,4.77c-2.63,0-4.77-2.13-4.77-4.77C105.04,21.91,107.18,19.77,109.81,19.77 L109.81,19.77z M76.26,27.72c1.34-0.67,2.98-0.13,3.65,1.22c0.67,1.35,0.13,2.98-1.22,3.65c-1.34,0.67-2.98,0.13-3.65-1.22 C74.37,30.03,74.91,28.4,76.26,27.72L76.26,27.72z M33.65,58.16c0.83,0,1.5,0.67,1.5,1.5c0,0.83-0.67,1.5-1.5,1.5 c-0.83,0-1.5-0.67-1.5-1.5C32.15,58.83,32.82,58.16,33.65,58.16L33.65,58.16z M74.45,59.19c1.48,0,2.68,1.2,2.68,2.69 c0,1.48-1.2,2.68-2.68,2.68c-1.48,0-2.69-1.2-2.69-2.68C71.76,60.4,72.97,59.19,74.45,59.19L74.45,59.19z M55.28,81.56 c1.34-0.67,2.98-0.13,3.65,1.22c0.67,1.34,0.13,2.98-1.22,3.65c-1.35,0.67-2.98,0.13-3.65-1.22 C53.39,83.87,53.93,82.24,55.28,81.56L55.28,81.56z M67.88,83.13c1.86-0.93,4.13-0.18,5.06,1.69c0.93,1.87,0.18,4.13-1.69,5.07 c-1.86,0.93-4.13,0.18-5.06-1.69C65.26,86.33,66.02,84.07,67.88,83.13L67.88,83.13z M43.62,35.04c1.22-0.61,2.7-0.12,3.31,1.1 c0.61,1.22,0.12,2.7-1.1,3.31c-1.22,0.61-2.7,0.12-3.31-1.1C41.91,37.12,42.4,35.64,43.62,35.04L43.62,35.04z M84.51,72.23 c1.22-0.61,2.7-0.12,3.31,1.1c0.61,1.22,0.12,2.7-1.1,3.31c-1.22,0.61-2.7,0.12-3.31-1.1C82.79,74.32,83.29,72.84,84.51,72.23 L84.51,72.23z M35.26,70.97c1.56,0,2.83,1.27,2.83,2.83c0,1.56-1.27,2.83-2.83,2.83c-1.56,0-2.83-1.27-2.83-2.83 C32.43,72.24,33.7,70.97,35.26,70.97L35.26,70.97z M48.6,54.16c1.36,0,2.46,1.1,2.46,2.46c0,1.36-1.1,2.46-2.46,2.46 c-1.36,0-2.46-1.1-2.46-2.46C46.13,55.27,47.24,54.16,48.6,54.16L48.6,54.16z M59.23,66.67c1.62,0,2.93,1.31,2.93,2.93 c0,1.62-1.31,2.93-2.93,2.93c-1.62,0-2.93-1.31-2.93-2.93C56.31,67.98,57.62,66.67,59.23,66.67L59.23,66.67z M64.4,41.76 c2.63,0,4.77,2.13,4.77,4.77c0,2.63-2.13,4.77-4.77,4.77c-2.63,0-4.77-2.13-4.77-4.77C59.64,43.89,61.77,41.76,64.4,41.76 L64.4,41.76z M88.87,45.34c2.63,0,4.77,2.13,4.77,4.77c0,2.63-2.13,4.77-4.77,4.77c-2.63,0-4.77-2.13-4.77-4.77 C84.1,47.47,86.23,45.34,88.87,45.34L88.87,45.34z M67.38,100.75c-0.15-0.08-0.3-0.16-0.45-0.24c-1.07-0.58-2.01-1.25-2.79-1.95 c-1.09-0.99-1.18-2.67-0.2-3.77c0.99-1.09,2.67-1.18,3.77-0.2c0.48,0.43,1.09,0.86,1.79,1.24c0.65,0.36,1.37,0.68,2.13,0.94 c2.62,0.37,5.09,0.34,7.37-0.02c4.99-0.78,9.21-3.16,12.35-6.46c3.15-3.31,5.22-7.55,5.88-12.08c0.31-2.09,0.32-4.22,0.02-6.34 c-0.02-0.08-0.03-0.15-0.05-0.23c-0.16-1.07-0.41-2.03-0.74-2.91c-0.33-0.87-0.75-1.7-1.25-2.49c-0.8-1.24-0.44-2.89,0.8-3.68 c1.24-0.79,2.89-0.44,3.68,0.8c0.7,1.08,1.28,2.25,1.75,3.52l0.1,0.26c2.1-1.7,3.71-4.17,4.67-7.04c0.7-2.08,1.04-4.36,0.98-6.7 c-0.07-2.34-0.55-4.73-1.51-7.05c-2.23-5.4-7.11-10.36-15.44-13.15c-1.03-0.34-1.8-1.29-1.84-2.44C88.23,26.11,87,22.8,85.2,20.61 c-1.48-1.81-3.39-2.88-5.4-3.37c-2.07-0.5-4.29-0.39-6.32,0.19c-2.5,0.71-4.64,2.1-5.82,3.89l0,0c-0.16,0.24-0.36,0.45-0.59,0.64 c-0.58,0.45-1.17,1.47-1.61,2.75c-0.45,1.32-0.68,2.79-0.54,4.13c0.15,1.46-0.92,2.77-2.38,2.92c-1.46,0.15-2.77-0.92-2.92-2.38 c-0.22-2.14,0.12-4.42,0.8-6.39c0.32-0.95,0.74-1.84,1.21-2.65c-3.63-2.27-7.93-3.21-12.18-2.9c-2.77,0.2-5.5,0.92-7.98,2.13 c-2.48,1.22-4.74,2.93-6.57,5.1c-3.27,3.89-5.21,9.33-4.73,16.2L30.17,41c0.1,1.02,0.27,1.99,0.51,2.9 c0.25,0.9,0.58,1.75,1.03,2.54c0.73,1.28,0.28,2.91-1,3.63c-1.28,0.73-2.91,0.28-3.63-1c-0.67-1.17-1.17-2.43-1.53-3.77 c-0.07-0.25-0.13-0.5-0.19-0.75c-2.4,1.14-4.43,3.16-5.96,5.68c-1.73,2.85-2.81,6.31-3.07,9.88c-0.25,3.54,0.31,7.15,1.86,10.33 c1.89,3.87,5.29,7.13,10.52,8.84c0.13,0.03,0.26,0.08,0.38,0.13c1.35,0.59,1.97,2.16,1.38,3.51c-1.57,3.58-1.61,7.28-0.52,10.16 c0.55,1.45,1.39,2.67,2.46,3.52c1.01,0.81,2.25,1.29,3.65,1.32c2.43,0.06,5.42-1.15,8.81-4.17c0.49-0.45,1.14-0.72,1.86-0.71 c1.47,0.03,2.64,1.24,2.61,2.71c-0.08,3.54,1.26,5.83,3.23,7.1c1.24,0.8,2.75,1.26,4.35,1.41c1.68,0.16,3.44-0.01,5.11-0.46h0.01 C64.23,103.2,66.19,102.14,67.38,100.75L67.38,100.75z"/></g></svg>